<?xml version="1.0" encoding="UTF-8" standalone="no"?>
<!DOCTYPE svg PUBLIC "-//W3C//DTD SVG 1.1//EN"
 "http://www.w3.org/Graphics/SVG/1.1/DTD/svg11.dtd">
<!-- Generated by graphviz version 12.2.1 (20241206.2353)
 -->
<!-- Title: Main Pages: 1 -->
<svg width="244pt" height="449pt"
 viewBox="0.00 0.00 244.38 449.00" xmlns="http://www.w3.org/2000/svg" xmlns:xlink="http://www.w3.org/1999/xlink">

<svg id="main" version="1.1" xmlns="http://www.w3.org/2000/svg" xmlns:xlink="http://www.w3.org/1999/xlink" xml:space="preserve">

<style type="text/css"><![CDATA[
.node, .edge {opacity: 0.7;}
.node.selected, .edge.selected {opacity: 1;}
.edge:hover path { stroke: red; }
.edge:hover polygon { stroke: red; fill: red; }
]]></style>
<script type="application/ecmascript" xlink:href="svg.min.js"/>
<svg id="graph" class="graph">
<g id="graph0" class="graph" transform="scale(1 1) rotate(0) translate(4 445)">
<title>Main</title>
<!-- Node1 -->
<g id="Node000001" class="node">
<title>Node1</title>
<g id="a_Node000001"><a xlink:title=" ">
<polygon fill="#999999" stroke="none" points="124.62,-68 30.88,-68 30.88,0 124.62,0 124.62,-68"/>
<text text-anchor="start" x="67.25" y="-54.5" font-family="Helvetica,sans-Serif" font-size="10.00">Main</text>
<text text-anchor="start" x="34.88" y="-38.5" font-family="Helvetica,sans-Serif" font-size="10.00">+</text>
<text text-anchor="start" x="44.88" y="-38.5" font-family="Helvetica,sans-Serif" font-size="10.00">Material material</text>
<text text-anchor="start" x="36.38" y="-22.5" font-family="Helvetica,sans-Serif" font-size="10.00">&#45;</text>
<text text-anchor="start" x="44.88" y="-22.5" font-family="Helvetica,sans-Serif" font-size="10.00">Transform viewer</text>
<text text-anchor="start" x="36.38" y="-6.5" font-family="Helvetica,sans-Serif" font-size="10.00">&#45;</text>
<text text-anchor="start" x="44.88" y="-6.5" font-family="Helvetica,sans-Serif" font-size="10.00">void Awake()</text>
<polygon fill="#666666" stroke="#666666" points="30.88,-50 30.88,-50 124.62,-50 124.62,-50 30.88,-50"/>
<polygon fill="#666666" stroke="#666666" points="30.88,-18 30.88,-18 42.88,-18 42.88,-18 30.88,-18"/>
<polygon fill="#666666" stroke="#666666" points="42.88,-18 42.88,-18 124.62,-18 124.62,-18 42.88,-18"/>
<polygon fill="none" stroke="#666666" points="30.88,0 30.88,-68 124.62,-68 124.62,0 30.88,0"/>
</a>
</g>
</g>
<!-- Node2 -->
<g id="Node000002" class="node">
<title>Node2</title>
<g id="a_Node000002"><a xlink:title=" ">
<polygon fill="white" stroke="none" points="75.5,-260 0,-260 0,-208 75.5,-208 75.5,-260"/>
<text text-anchor="start" x="4" y="-246.5" font-family="Helvetica,sans-Serif" font-size="10.00">MonoBehaviour</text>
<text text-anchor="start" x="36.25" y="-230.5" font-family="Helvetica,sans-Serif" font-size="10.00"> </text>
<text text-anchor="start" x="36.25" y="-214.5" font-family="Helvetica,sans-Serif" font-size="10.00"> </text>
<polygon fill="#bfbfbf" stroke="#bfbfbf" points="0,-242 0,-242 75.5,-242 75.5,-242 0,-242"/>
<polygon fill="#bfbfbf" stroke="#bfbfbf" points="0,-226 0,-226 75.5,-226 75.5,-226 0,-226"/>
<polygon fill="none" stroke="#bfbfbf" points="0,-208 0,-260 75.5,-260 75.5,-208 0,-208"/>
</a>
</g>
</g>
<!-- Node2&#45;&gt;Node1 -->
<g id="edge1_Node000001_Node000002" class="edge">
<title>Node2&#45;&gt;Node1</title>
<g id="a_edge1_Node000001_Node000002"><a xlink:title=" ">
<path fill="none" stroke="#63b8ff" d="M45,-197.13C52.43,-160.34 63.89,-103.58 71.1,-67.91"/>
<polygon fill="none" stroke="#63b8ff" points="41.58,-196.34 43.03,-206.84 48.45,-197.73 41.58,-196.34"/>
</a>
</g>
</g>
<!-- Node3 -->
<g id="Node000003" class="node">
<title>Node3</title>
<g id="a_Node000003"><a xlink:href="class_noise_settings.html" target="_top" xlink:title=" ">
<polygon fill="white" stroke="none" points="236.38,-352 93.12,-352 93.12,-116 236.38,-116 236.38,-352"/>
<text text-anchor="start" x="134" y="-338.5" font-family="Helvetica,sans-Serif" font-size="10.00">NoiseSettings</text>
<text text-anchor="start" x="97.12" y="-322.5" font-family="Helvetica,sans-Serif" font-size="10.00">+</text>
<text text-anchor="start" x="107.12" y="-322.5" font-family="Helvetica,sans-Serif" font-size="10.00">int seed</text>
<text text-anchor="start" x="97.12" y="-306.5" font-family="Helvetica,sans-Serif" font-size="10.00">+</text>
<text text-anchor="start" x="107.12" y="-306.5" font-family="Helvetica,sans-Serif" font-size="10.00">float scale</text>
<text text-anchor="start" x="97.12" y="-290.5" font-family="Helvetica,sans-Serif" font-size="10.00">+</text>
<text text-anchor="start" x="107.12" y="-290.5" font-family="Helvetica,sans-Serif" font-size="10.00">int octave</text>
<text text-anchor="start" x="97.12" y="-274.5" font-family="Helvetica,sans-Serif" font-size="10.00">+</text>
<text text-anchor="start" x="107.12" y="-274.5" font-family="Helvetica,sans-Serif" font-size="10.00">float persistance</text>
<text text-anchor="start" x="97.12" y="-258.5" font-family="Helvetica,sans-Serif" font-size="10.00">+</text>
<text text-anchor="start" x="107.12" y="-258.5" font-family="Helvetica,sans-Serif" font-size="10.00">float lacunarity</text>
<text text-anchor="start" x="97.12" y="-242.5" font-family="Helvetica,sans-Serif" font-size="10.00">+</text>
<text text-anchor="start" x="107.12" y="-242.5" font-family="Helvetica,sans-Serif" font-size="10.00">float frequency</text>
<text text-anchor="start" x="97.12" y="-226.5" font-family="Helvetica,sans-Serif" font-size="10.00">+</text>
<text text-anchor="start" x="107.12" y="-226.5" font-family="Helvetica,sans-Serif" font-size="10.00">float amplitude</text>
<text text-anchor="start" x="97.12" y="-210.5" font-family="Helvetica,sans-Serif" font-size="10.00">+</text>
<text text-anchor="start" x="107.12" y="-210.5" font-family="Helvetica,sans-Serif" font-size="10.00">int meshScale</text>
<text text-anchor="start" x="97.12" y="-194.5" font-family="Helvetica,sans-Serif" font-size="10.00">+</text>
<text text-anchor="start" x="107.12" y="-194.5" font-family="Helvetica,sans-Serif" font-size="10.00">Vector3 offset</text>
<text text-anchor="start" x="97.12" y="-178.5" font-family="Helvetica,sans-Serif" font-size="10.00">+</text>
<text text-anchor="start" x="107.12" y="-178.5" font-family="Helvetica,sans-Serif" font-size="10.00">AnimationCurve heightCurve</text>
<text text-anchor="start" x="97.12" y="-162.5" font-family="Helvetica,sans-Serif" font-size="10.00">+</text>
<text text-anchor="start" x="107.12" y="-162.5" font-family="Helvetica,sans-Serif" font-size="10.00">Gradient gradient</text>
<text text-anchor="start" x="97.12" y="-146.5" font-family="Helvetica,sans-Serif" font-size="10.00">+</text>
<text text-anchor="start" x="107.12" y="-146.5" font-family="Helvetica,sans-Serif" font-size="10.00">NoiseSettingsData Create</text>
<text text-anchor="start" x="107.12" y="-134.5" font-family="Helvetica,sans-Serif" font-size="10.00">JobFriendlySettings(int</text>
<text text-anchor="start" x="107.12" y="-122.5" font-family="Helvetica,sans-Serif" font-size="10.00"> samplePoints=256)</text>
<polygon fill="#bfbfbf" stroke="#bfbfbf" points="93.12,-334 93.12,-334 236.38,-334 236.38,-334 93.12,-334"/>
<polygon fill="#bfbfbf" stroke="#bfbfbf" points="93.12,-158 93.12,-158 105.12,-158 105.12,-158 93.12,-158"/>
<polygon fill="#bfbfbf" stroke="#bfbfbf" points="105.12,-158 105.12,-158 236.38,-158 236.38,-158 105.12,-158"/>
<polygon fill="none" stroke="#bfbfbf" points="93.12,-116 93.12,-352 236.38,-352 236.38,-116 93.12,-116"/>
</a>
</g>
</g>
<!-- Node3&#45;&gt;Node1 -->
<g id="edge2_Node000001_Node000003" class="edge">
<title>Node3&#45;&gt;Node1</title>
<g id="a_edge2_Node000001_Node000003"><a xlink:title=" ">
<path fill="none" stroke="#63b8ff" d="M113.39,-116.11C107.66,-103.07 102.12,-90.46 97.18,-79.23"/>
<polygon fill="none" stroke="#63b8ff" points="97.27,-79.43 91.2,-75.55 92.45,-68.45 98.52,-72.33 97.27,-79.43"/>
</a>
</g>
<text text-anchor="middle" x="125.21" y="-88.5" font-family="Helvetica,sans-Serif" font-size="10.00" fill="grey"> +settings</text>
</g>
<!-- Node4 -->
<g id="Node000004" class="node">
<title>Node4</title>
<g id="a_Node000004"><a xlink:title=" ">
<polygon fill="white" stroke="none" points="204.75,-441 124.75,-441 124.75,-389 204.75,-389 204.75,-441"/>
<text text-anchor="start" x="128.75" y="-427.5" font-family="Helvetica,sans-Serif" font-size="10.00">ScriptableObject</text>
<text text-anchor="start" x="163.25" y="-411.5" font-family="Helvetica,sans-Serif" font-size="10.00"> </text>
<text text-anchor="start" x="163.25" y="-395.5" font-family="Helvetica,sans-Serif" font-size="10.00"> </text>
<polygon fill="#bfbfbf" stroke="#bfbfbf" points="124.75,-423 124.75,-423 204.75,-423 204.75,-423 124.75,-423"/>
<polygon fill="#bfbfbf" stroke="#bfbfbf" points="124.75,-407 124.75,-407 204.75,-407 204.75,-407 124.75,-407"/>
<polygon fill="none" stroke="#bfbfbf" points="124.75,-389 124.75,-441 204.75,-441 204.75,-389 124.75,-389"/>
</a>
</g>
</g>
<!-- Node4&#45;&gt;Node3 -->
<g id="edge3_Node000003_Node000004" class="edge">
<title>Node4&#45;&gt;Node3</title>
<g id="a_edge3_Node000003_Node000004"><a xlink:title=" ">
<path fill="none" stroke="#63b8ff" d="M164.75,-377.76C164.75,-369.8 164.75,-360.95 164.75,-351.67"/>
<polygon fill="none" stroke="#63b8ff" points="161.25,-377.6 164.75,-387.6 168.25,-377.6 161.25,-377.6"/>
</a>
</g>
</g>
</g>
</svg>
</svg>

<style type='text/css'>
<![CDATA[
[data-mouse-over-selected='false'] { opacity: 0.7; }
[data-mouse-over-selected='true']  { opacity: 1.0; }
]]>
</style>
<script type="application/ecmascript"><![CDATA[
document.addEventListener('DOMContentLoaded', (event) => {
  highlightEdges();
  highlightAdjacentNodes();
});
]]></script>
</svg>
