<?xml version="1.0" encoding="UTF-8" standalone="no"?>
<!DOCTYPE svg PUBLIC "-//W3C//DTD SVG 1.1//EN"
 "http://www.w3.org/Graphics/SVG/1.1/DTD/svg11.dtd">
<!-- Generated by graphviz version 12.2.1 (20241206.2353)
 -->
<!-- Title: Graphical Class Hierarchy Pages: 1 -->
<svg width="213pt" height="66pt"
 viewBox="0.00 0.00 213.25 66.00" xmlns="http://www.w3.org/2000/svg" xmlns:xlink="http://www.w3.org/1999/xlink">
<g id="graph0" class="graph" transform="scale(1 1) rotate(0) translate(4 62)">
<title>Graphical Class Hierarchy</title>
<!-- Node0 -->
<g id="Node000000" class="node">
<title>Node0</title>
<g id="a_Node000000"><a xlink:title=" ">
<polygon fill="#e0e0e0" stroke="#999999" points="88,-39 0,-39 0,-19 88,-19 88,-39"/>
<text text-anchor="middle" x="44" y="-25.5" font-family="Helvetica,sans-Serif" font-size="10.00">ScriptableObject</text>
</a>
</g>
</g>
<!-- Node1 -->
<g id="Node000001" class="node">
<title>Node1</title>
<g id="a_Node000001"><a xlink:href="class_noise_settings.html" target="_top" xlink:title=" ">
<polygon fill="white" stroke="#666666" points="203.38,-58 125.88,-58 125.88,-38 203.38,-38 203.38,-58"/>
<text text-anchor="middle" x="164.62" y="-44.5" font-family="Helvetica,sans-Serif" font-size="10.00">NoiseSettings</text>
</a>
</g>
</g>
<!-- Node0&#45;&gt;Node1 -->
<g id="edge8_Node000000_Node000001" class="edge">
<title>Node0&#45;&gt;Node1</title>
<g id="a_edge8_Node000000_Node000001"><a xlink:title=" ">
<path fill="none" stroke="#63b8ff" d="M99.82,-37.78C108.54,-39.18 117.39,-40.59 125.61,-41.91"/>
<polygon fill="#63b8ff" stroke="#63b8ff" points="100.42,-34.33 89.99,-36.21 99.31,-41.24 100.42,-34.33"/>
</a>
</g>
</g>
<!-- Node2 -->
<g id="Node000002" class="node">
<title>Node2</title>
<g id="a_Node000002"><a xlink:href="class_updatable_data.html" target="_top" xlink:title=" ">
<polygon fill="white" stroke="#666666" points="205.25,-20 124,-20 124,0 205.25,0 205.25,-20"/>
<text text-anchor="middle" x="164.62" y="-6.5" font-family="Helvetica,sans-Serif" font-size="10.00">UpdatableData</text>
</a>
</g>
</g>
<!-- Node0&#45;&gt;Node2 -->
<g id="edge9_Node000000_Node000002" class="edge">
<title>Node0&#45;&gt;Node2</title>
<g id="a_edge9_Node000000_Node000002"><a xlink:title=" ">
<path fill="none" stroke="#63b8ff" d="M99.75,-20.23C107.81,-18.94 115.99,-17.63 123.67,-16.4"/>
<polygon fill="#63b8ff" stroke="#63b8ff" points="99.31,-16.76 89.99,-21.79 100.42,-23.67 99.31,-16.76"/>
</a>
</g>
</g>
</g>
</svg>
