<?xml version="1.0" encoding="UTF-8" standalone="no"?>
<!DOCTYPE svg PUBLIC "-//W3C//DTD SVG 1.1//EN"
 "http://www.w3.org/Graphics/SVG/1.1/DTD/svg11.dtd">
<!-- Generated by graphviz version 12.2.1 (20241206.2353)
 -->
<!-- Title: ChunkGen Pages: 1 -->
<!--zoomable 717 -->

<svg id="main" version="1.1" xmlns="http://www.w3.org/2000/svg" xmlns:xlink="http://www.w3.org/1999/xlink" xml:space="preserve" onload="init(evt)">

<style type="text/css"><![CDATA[
.node, .edge {opacity: 0.7;}
.node.selected, .edge.selected {opacity: 1;}
.edge:hover path { stroke: red; }
.edge:hover polygon { stroke: red; fill: red; }
]]></style>

<defs>
  <circle id="rim" cx="0" cy="0" r="7"/>
  <circle id="rim2" cx="0" cy="0" r="3.5"/>
  <g id="zoomPlus">
    <use xlink:href="#rim" fill="#404040"><set attributeName="fill" to="#808080" begin="zoomplus.mouseover" end="zoomplus.mouseout"/></use>
    <path d="M-4,0h8M0,-4v8" fill="none" stroke="white" stroke-width="1.5" pointer-events="none"/>
  </g>
  <g id="zoomMin">
    <use xlink:href="#rim" fill="#404040"><set attributeName="fill" to="#808080" begin="zoomminus.mouseover" end="zoomminus.mouseout"/></use>
    <path d="M-4,0h8" fill="none" stroke="white" stroke-width="1.5" pointer-events="none"/>
  </g>
  <g id="arrowUp" transform="translate(30 24)">
    <use xlink:href="#rim"/>
    <path pointer-events="none" fill="none" stroke="white" stroke-width="1.5" d="M0,-3.0v7 M-2.5,-0.5L0,-3.0L2.5,-0.5"/>
  </g>
  <g id="arrowRight" transform="rotate(90) translate(36 -43)">
    <use xlink:href="#rim"/>
    <path pointer-events="none" fill="none" stroke="white" stroke-width="1.5" d="M0,-3.0v7 M-2.5,-0.5L0,-3.0L2.5,-0.5"/>
  </g>
  <g id="arrowDown" transform="rotate(180) translate(-30 -48)">
    <use xlink:href="#rim"/>
    <path pointer-events="none" fill="none" stroke="white" stroke-width="1.5" d="M0,-3.0v7 M-2.5,-0.5L0,-3.0L2.5,-0.5"/>
  </g>
  <g id="arrowLeft" transform="rotate(270) translate(-36 17)">
    <use xlink:href="#rim"/>
    <path pointer-events="none" fill="none" stroke="white" stroke-width="1.5" d="M0,-3.0v7 M-2.5,-0.5L0,-3.0L2.5,-0.5"/>
  </g>
  <g id="resetDef">
    <use xlink:href="#rim2" fill="#404040"><set attributeName="fill" to="#808080" begin="reset.mouseover" end="reset.mouseout"/></use>
  </g>
</defs>
<script type="application/ecmascript">
var viewWidth = 370;
var viewHeight = 717;
var sectionId = 'dynsection-1';
</script>
<script type="application/ecmascript" xlink:href="svg.min.js"/>
<svg id="graph" class="graph">
<g id="viewport">
<title>ChunkGen</title>
<!-- Node1 -->
<g id="Node000001" class="node">
<title>Node1</title>
<g id="a_Node000001"><a xlink:title=" ">
<polygon fill="#999999" stroke="none" points="217.25,-252 41.75,-252 41.75,0 217.25,0 217.25,-252"/>
<text text-anchor="start" x="106.25" y="-238.5" font-family="Helvetica,sans-Serif" font-size="10.00">ChunkGen</text>
<text text-anchor="start" x="45.75" y="-222.5" font-family="Helvetica,sans-Serif" font-size="10.00">+</text>
<text text-anchor="start" x="55.75" y="-222.5" font-family="Helvetica,sans-Serif" font-size="10.00">float2 origin</text>
<text text-anchor="start" x="45.75" y="-206.5" font-family="Helvetica,sans-Serif" font-size="10.00">+</text>
<text text-anchor="start" x="55.75" y="-206.5" font-family="Helvetica,sans-Serif" font-size="10.00">quaternion meshRotation</text>
<text text-anchor="start" x="45.75" y="-190.5" font-family="Helvetica,sans-Serif" font-size="10.00">+</text>
<text text-anchor="start" x="55.75" y="-190.5" font-family="Helvetica,sans-Serif" font-size="10.00">float res</text>
<text text-anchor="start" x="45.75" y="-174.5" font-family="Helvetica,sans-Serif" font-size="10.00">+</text>
<text text-anchor="start" x="55.75" y="-174.5" font-family="Helvetica,sans-Serif" font-size="10.00">int resolution</text>
<text text-anchor="start" x="45.75" y="-158.5" font-family="Helvetica,sans-Serif" font-size="10.00">+</text>
<text text-anchor="start" x="55.75" y="-158.5" font-family="Helvetica,sans-Serif" font-size="10.00">int vertexCount</text>
<text text-anchor="start" x="45.75" y="-142.5" font-family="Helvetica,sans-Serif" font-size="10.00">+</text>
<text text-anchor="start" x="55.75" y="-142.5" font-family="Helvetica,sans-Serif" font-size="10.00">int indexCount</text>
<text text-anchor="start" x="45.75" y="-126.5" font-family="Helvetica,sans-Serif" font-size="10.00">+</text>
<text text-anchor="start" x="55.75" y="-126.5" font-family="Helvetica,sans-Serif" font-size="10.00">int jobLength</text>
<text text-anchor="start" x="45.75" y="-110.5" font-family="Helvetica,sans-Serif" font-size="10.00">+</text>
<text text-anchor="start" x="55.75" y="-110.5" font-family="Helvetica,sans-Serif" font-size="10.00">void Execute(int z)</text>
<text text-anchor="start" x="45.75" y="-94.5" font-family="Helvetica,sans-Serif" font-size="10.00">+</text>
<text text-anchor="start" x="55.75" y="-94.5" font-family="Helvetica,sans-Serif" font-size="10.00">static JobHandle Schedule</text>
<text text-anchor="start" x="55.75" y="-82.5" font-family="Helvetica,sans-Serif" font-size="10.00">Parallel(Mesh.MeshData</text>
<text text-anchor="start" x="55.75" y="-70.5" font-family="Helvetica,sans-Serif" font-size="10.00"> meshData, NoiseSettingsData</text>
<text text-anchor="start" x="55.75" y="-58.5" font-family="Helvetica,sans-Serif" font-size="10.00"> settings, float2 origin, quaternion</text>
<text text-anchor="start" x="55.75" y="-46.5" font-family="Helvetica,sans-Serif" font-size="10.00"> meshRotation, float res, JobHandle</text>
<text text-anchor="start" x="55.75" y="-34.5" font-family="Helvetica,sans-Serif" font-size="10.00"> dependency, int resolution=255)</text>
<text text-anchor="start" x="45.75" y="-18.5" font-family="Helvetica,sans-Serif" font-size="10.00">+</text>
<text text-anchor="start" x="55.75" y="-18.5" font-family="Helvetica,sans-Serif" font-size="10.00">static float3 CubeToSphere</text>
<text text-anchor="start" x="55.75" y="-6.5" font-family="Helvetica,sans-Serif" font-size="10.00">(float3 p, float radius)</text>
<polygon fill="#666666" stroke="#666666" points="41.75,-234 41.75,-234 217.25,-234 217.25,-234 41.75,-234"/>
<polygon fill="#666666" stroke="#666666" points="41.75,-122 41.75,-122 53.75,-122 53.75,-122 41.75,-122"/>
<polygon fill="#666666" stroke="#666666" points="53.75,-122 53.75,-122 217.25,-122 217.25,-122 53.75,-122"/>
<polygon fill="none" stroke="#666666" points="41.75,0 41.75,-252 217.25,-252 217.25,0 41.75,0"/>
</a>
</g>
</g>
<!-- Node2 -->
<g id="Node000002" class="node">
<title>Node2</title>
<g id="a_Node000002"><a xlink:title=" ">
<polygon fill="white" stroke="none" points="41,-486 0,-486 0,-434 41,-434 41,-486"/>
<text text-anchor="start" x="4" y="-472.5" font-family="Helvetica,sans-Serif" font-size="10.00">IJobFor</text>
<text text-anchor="start" x="19" y="-456.5" font-family="Helvetica,sans-Serif" font-size="10.00"> </text>
<text text-anchor="start" x="19" y="-440.5" font-family="Helvetica,sans-Serif" font-size="10.00"> </text>
<polygon fill="#bfbfbf" stroke="#bfbfbf" points="0,-468 0,-468 41,-468 41,-468 0,-468"/>
<polygon fill="#bfbfbf" stroke="#bfbfbf" points="0,-452 0,-452 41,-452 41,-452 0,-452"/>
<polygon fill="none" stroke="#bfbfbf" points="0,-434 0,-486 41,-486 41,-434 0,-434"/>
</a>
</g>
</g>
<!-- Node2&#45;&gt;Node1 -->
<g id="edge1_Node000001_Node000002" class="edge">
<title>Node2&#45;&gt;Node1</title>
<g id="a_edge1_Node000001_Node000002"><a xlink:title=" ">
<path fill="none" stroke="#63b8ff" d="M24.46,-422.77C28.64,-390.13 36.48,-341.1 49.5,-300 54.55,-284.07 60.71,-267.69 67.37,-251.66"/>
<polygon fill="none" stroke="#63b8ff" points="21.01,-422.16 23.26,-432.51 27.95,-423.01 21.01,-422.16"/>
</a>
</g>
</g>
<!-- Node3 -->
<g id="Node000003" class="node">
<title>Node3</title>
<g id="a_Node000003"><a xlink:href="struct_advanced_mesh_gen_setup.html" target="_top" xlink:title=" ">
<polygon fill="white" stroke="none" points="200.38,-546 58.62,-546 58.62,-374 200.38,-374 200.38,-546"/>
<text text-anchor="start" x="74" y="-532.5" font-family="Helvetica,sans-Serif" font-size="10.00">AdvancedMeshGenSetup</text>
<text text-anchor="start" x="64.12" y="-516.5" font-family="Helvetica,sans-Serif" font-size="10.00">&#45;</text>
<text text-anchor="start" x="72.62" y="-516.5" font-family="Helvetica,sans-Serif" font-size="10.00">NativeArray&lt; Vertex</text>
<text text-anchor="start" x="72.62" y="-504.5" font-family="Helvetica,sans-Serif" font-size="10.00"> &gt; vertices</text>
<text text-anchor="start" x="64.12" y="-488.5" font-family="Helvetica,sans-Serif" font-size="10.00">&#45;</text>
<text text-anchor="start" x="72.62" y="-488.5" font-family="Helvetica,sans-Serif" font-size="10.00">NativeArray&lt; TriangleUInt16</text>
<text text-anchor="start" x="72.62" y="-476.5" font-family="Helvetica,sans-Serif" font-size="10.00"> &gt; triangles</text>
<text text-anchor="start" x="62.62" y="-460.5" font-family="Helvetica,sans-Serif" font-size="10.00">+</text>
<text text-anchor="start" x="72.62" y="-460.5" font-family="Helvetica,sans-Serif" font-size="10.00">void Setup(Mesh.MeshData</text>
<text text-anchor="start" x="72.62" y="-448.5" font-family="Helvetica,sans-Serif" font-size="10.00"> meshData, int vertexCount,</text>
<text text-anchor="start" x="72.62" y="-436.5" font-family="Helvetica,sans-Serif" font-size="10.00"> int indexCount)</text>
<text text-anchor="start" x="62.62" y="-420.5" font-family="Helvetica,sans-Serif" font-size="10.00">+</text>
<text text-anchor="start" x="72.62" y="-420.5" font-family="Helvetica,sans-Serif" font-size="10.00">void SetVertex(int</text>
<text text-anchor="start" x="72.62" y="-408.5" font-family="Helvetica,sans-Serif" font-size="10.00"> index, Vertex vertex)</text>
<text text-anchor="start" x="62.62" y="-392.5" font-family="Helvetica,sans-Serif" font-size="10.00">+</text>
<text text-anchor="start" x="72.62" y="-392.5" font-family="Helvetica,sans-Serif" font-size="10.00">void SetTriangle(int</text>
<text text-anchor="start" x="72.62" y="-380.5" font-family="Helvetica,sans-Serif" font-size="10.00"> index, int3 triangle)</text>
<polygon fill="#bfbfbf" stroke="#bfbfbf" points="58.62,-528 58.62,-528 200.38,-528 200.38,-528 58.62,-528"/>
<polygon fill="#bfbfbf" stroke="#bfbfbf" points="58.62,-472 58.62,-472 70.62,-472 70.62,-472 58.62,-472"/>
<polygon fill="#bfbfbf" stroke="#bfbfbf" points="70.62,-472 70.62,-472 200.38,-472 200.38,-472 70.62,-472"/>
<polygon fill="none" stroke="#bfbfbf" points="58.62,-374 58.62,-546 200.38,-546 200.38,-374 58.62,-374"/>
</a>
</g>
</g>
<!-- Node3&#45;&gt;Node1 -->
<g id="edge2_Node000001_Node000003" class="edge">
<title>Node3&#45;&gt;Node1</title>
<g id="a_edge2_Node000001_Node000003"><a xlink:title=" ">
<path fill="none" stroke="#63b8ff" d="M129.5,-374.36C129.5,-341.11 129.5,-302.07 129.5,-264.95"/>
<polygon fill="none" stroke="#63b8ff" points="129.5,-264.82 125.5,-258.82 129.5,-252.82 133.5,-258.82 129.5,-264.82"/>
</a>
</g>
<text text-anchor="middle" x="155" y="-272.5" font-family="Helvetica,sans-Serif" font-size="10.00" fill="grey"> +meshGen</text>
</g>
<!-- Node4 -->
<g id="Node000004" class="node">
<title>Node4</title>
<g id="a_Node000004"><a xlink:href="struct_noise_settings_data.html" target="_top" xlink:title=" ">
<polygon fill="white" stroke="none" points="362.12,-620 218.88,-620 218.88,-300 362.12,-300 362.12,-620"/>
<text text-anchor="start" x="249.25" y="-606.5" font-family="Helvetica,sans-Serif" font-size="10.00">NoiseSettingsData</text>
<text text-anchor="start" x="222.88" y="-590.5" font-family="Helvetica,sans-Serif" font-size="10.00">+</text>
<text text-anchor="start" x="232.88" y="-590.5" font-family="Helvetica,sans-Serif" font-size="10.00">float scale</text>
<text text-anchor="start" x="222.88" y="-574.5" font-family="Helvetica,sans-Serif" font-size="10.00">+</text>
<text text-anchor="start" x="232.88" y="-574.5" font-family="Helvetica,sans-Serif" font-size="10.00">int octaveCount</text>
<text text-anchor="start" x="222.88" y="-558.5" font-family="Helvetica,sans-Serif" font-size="10.00">+</text>
<text text-anchor="start" x="232.88" y="-558.5" font-family="Helvetica,sans-Serif" font-size="10.00">float persistance</text>
<text text-anchor="start" x="222.88" y="-542.5" font-family="Helvetica,sans-Serif" font-size="10.00">+</text>
<text text-anchor="start" x="232.88" y="-542.5" font-family="Helvetica,sans-Serif" font-size="10.00">float lacunarity</text>
<text text-anchor="start" x="222.88" y="-526.5" font-family="Helvetica,sans-Serif" font-size="10.00">+</text>
<text text-anchor="start" x="232.88" y="-526.5" font-family="Helvetica,sans-Serif" font-size="10.00">float frequency</text>
<text text-anchor="start" x="222.88" y="-510.5" font-family="Helvetica,sans-Serif" font-size="10.00">+</text>
<text text-anchor="start" x="232.88" y="-510.5" font-family="Helvetica,sans-Serif" font-size="10.00">float amplitude</text>
<text text-anchor="start" x="222.88" y="-494.5" font-family="Helvetica,sans-Serif" font-size="10.00">+</text>
<text text-anchor="start" x="232.88" y="-494.5" font-family="Helvetica,sans-Serif" font-size="10.00">float maxHeight</text>
<text text-anchor="start" x="222.88" y="-478.5" font-family="Helvetica,sans-Serif" font-size="10.00">+</text>
<text text-anchor="start" x="232.88" y="-478.5" font-family="Helvetica,sans-Serif" font-size="10.00">float meshScale</text>
<text text-anchor="start" x="222.88" y="-462.5" font-family="Helvetica,sans-Serif" font-size="10.00">+</text>
<text text-anchor="start" x="232.88" y="-462.5" font-family="Helvetica,sans-Serif" font-size="10.00">int heightCurveSampleCount</text>
<text text-anchor="start" x="222.88" y="-446.5" font-family="Helvetica,sans-Serif" font-size="10.00">+</text>
<text text-anchor="start" x="232.88" y="-446.5" font-family="Helvetica,sans-Serif" font-size="10.00">NativeArray&lt; float3</text>
<text text-anchor="start" x="232.88" y="-434.5" font-family="Helvetica,sans-Serif" font-size="10.00"> &gt; octaveOffsets</text>
<text text-anchor="start" x="222.88" y="-418.5" font-family="Helvetica,sans-Serif" font-size="10.00">+</text>
<text text-anchor="start" x="232.88" y="-418.5" font-family="Helvetica,sans-Serif" font-size="10.00">NativeArray&lt; float</text>
<text text-anchor="start" x="232.88" y="-406.5" font-family="Helvetica,sans-Serif" font-size="10.00"> &gt; heightCurvePoints</text>
<text text-anchor="start" x="222.88" y="-390.5" font-family="Helvetica,sans-Serif" font-size="10.00">+</text>
<text text-anchor="start" x="232.88" y="-390.5" font-family="Helvetica,sans-Serif" font-size="10.00">NativeArray&lt; Color32</text>
<text text-anchor="start" x="232.88" y="-378.5" font-family="Helvetica,sans-Serif" font-size="10.00"> &gt; gradientColors</text>
<text text-anchor="start" x="222.88" y="-362.5" font-family="Helvetica,sans-Serif" font-size="10.00">+</text>
<text text-anchor="start" x="232.88" y="-362.5" font-family="Helvetica,sans-Serif" font-size="10.00">float SampleHeightCurve</text>
<text text-anchor="start" x="232.88" y="-350.5" font-family="Helvetica,sans-Serif" font-size="10.00">(float vertexNo)</text>
<text text-anchor="start" x="222.88" y="-334.5" font-family="Helvetica,sans-Serif" font-size="10.00">+</text>
<text text-anchor="start" x="232.88" y="-334.5" font-family="Helvetica,sans-Serif" font-size="10.00">Color32 SampleGradient</text>
<text text-anchor="start" x="232.88" y="-322.5" font-family="Helvetica,sans-Serif" font-size="10.00">(float inverseHeight)</text>
<text text-anchor="start" x="222.88" y="-306.5" font-family="Helvetica,sans-Serif" font-size="10.00">+</text>
<text text-anchor="start" x="232.88" y="-306.5" font-family="Helvetica,sans-Serif" font-size="10.00">void Dispose()</text>
<polygon fill="#bfbfbf" stroke="#bfbfbf" points="218.88,-602 218.88,-602 362.12,-602 362.12,-602 218.88,-602"/>
<polygon fill="#bfbfbf" stroke="#bfbfbf" points="218.88,-374 218.88,-374 230.88,-374 230.88,-374 218.88,-374"/>
<polygon fill="#bfbfbf" stroke="#bfbfbf" points="230.88,-374 230.88,-374 362.12,-374 362.12,-374 230.88,-374"/>
<polygon fill="none" stroke="#bfbfbf" points="218.88,-300 218.88,-620 362.12,-620 362.12,-300 218.88,-300"/>
</a>
</g>
</g>
<!-- Node4&#45;&gt;Node1 -->
<g id="edge3_Node000001_Node000004" class="edge">
<title>Node4&#45;&gt;Node1</title>
<g id="a_edge3_Node000001_Node000004"><a xlink:title=" ">
<path fill="none" stroke="#63b8ff" d="M218.95,-311.45C211.17,-295.42 203.29,-279.16 195.59,-263.28"/>
<polygon fill="none" stroke="#63b8ff" points="195.64,-263.4 189.43,-259.74 190.41,-252.6 196.63,-256.25 195.64,-263.4"/>
</a>
</g>
<text text-anchor="middle" x="222.11" y="-272.5" font-family="Helvetica,sans-Serif" font-size="10.00" fill="grey"> +settings</text>
</g>
<!-- Node5 -->
<g id="Node000005" class="node">
<title>Node5</title>
<g id="a_Node000005"><a xlink:title=" ">
<polygon fill="white" stroke="none" points="320.38,-709 260.62,-709 260.62,-657 320.38,-657 320.38,-709"/>
<text text-anchor="start" x="264.62" y="-695.5" font-family="Helvetica,sans-Serif" font-size="10.00">IDisposable</text>
<text text-anchor="start" x="289" y="-679.5" font-family="Helvetica,sans-Serif" font-size="10.00"> </text>
<text text-anchor="start" x="289" y="-663.5" font-family="Helvetica,sans-Serif" font-size="10.00"> </text>
<polygon fill="#bfbfbf" stroke="#bfbfbf" points="260.62,-691 260.62,-691 320.38,-691 320.38,-691 260.62,-691"/>
<polygon fill="#bfbfbf" stroke="#bfbfbf" points="260.62,-675 260.62,-675 320.38,-675 320.38,-675 260.62,-675"/>
<polygon fill="none" stroke="#bfbfbf" points="260.62,-657 260.62,-709 320.38,-709 320.38,-657 260.62,-657"/>
</a>
</g>
</g>
<!-- Node5&#45;&gt;Node4 -->
<g id="edge4_Node000004_Node000005" class="edge">
<title>Node5&#45;&gt;Node4</title>
<g id="a_edge4_Node000004_Node000005"><a xlink:title=" ">
<path fill="none" stroke="#63b8ff" d="M290.5,-645.63C290.5,-637.84 290.5,-629.13 290.5,-619.86"/>
<polygon fill="none" stroke="#63b8ff" points="287,-645.56 290.5,-655.56 294,-645.56 287,-645.56"/>
</a>
</g>
</g>
</g>
</svg>

<g id="navigator" transform="translate(0 0)" fill="#404254">
  <rect fill="#f2f5e9" fill-opacity="0.5" stroke="#606060" stroke-width=".5" x="0" y="0" width="60" height="60"/>
  <use id="zoomplus" xlink:href="#zoomPlus" x="17" y="9" onmousedown="handleZoom(evt,'in')"/>
  <use id="zoomminus" xlink:href="#zoomMin" x="42" y="9" onmousedown="handleZoom(evt,'out')"/>
  <use id="reset" xlink:href="#resetDef" x="30" y="36" onmousedown="handleReset()"/>
   <use id="arrowup" xlink:href="#arrowUp" x="0" y="0" onmousedown="handlePan(0,-1)"/>
  <use id="arrowright" xlink:href="#arrowRight" x="0" y="0" onmousedown="handlePan(1,0)"/>
  <use id="arrowdown" xlink:href="#arrowDown" x="0" y="0" onmousedown="handlePan(0,1)"/>
  <use id="arrowleft" xlink:href="#arrowLeft" x="0" y="0" onmousedown="handlePan(-1,0)"/>
</g>
<svg viewBox="0 0 15 15" width="100%" height="30px" preserveAspectRatio="xMaxYMin meet">
 <g id="arrow_out" transform="scale(0.3 0.3)">
  <a xlink:href="struct_chunk_gen__coll__graph_org.svg" target="_base">
   <rect id="button" ry="5" rx="5" y="6" x="6" height="38" width="38"
        fill="#f2f5e9" fill-opacity="0.5" stroke="#606060" stroke-width="1.0"/>
   <path id="arrow"
     d="M 11.500037,31.436501 C 11.940474,20.09759 22.043105,11.32322 32.158766,21.979434 L 37.068811,17.246167 C 37.068811,17.246167 37.088388,32 37.088388,32 L 22.160133,31.978069 C 22.160133,31.978069 26.997745,27.140456 26.997745,27.140456 C 18.528582,18.264221 13.291696,25.230495 11.500037,31.436501 z"
     style="fill:#404040;"/>
  </a>
 </g>
</svg>

<style type='text/css'>
<![CDATA[
[data-mouse-over-selected='false'] { opacity: 0.7; }
[data-mouse-over-selected='true']  { opacity: 1.0; }
]]>
</style>
<script type="application/ecmascript"><![CDATA[
document.addEventListener('DOMContentLoaded', (event) => {
  highlightEdges();
  highlightAdjacentNodes();
});
]]></script>
</svg>
