<?xml version="1.0" encoding="UTF-8" standalone="no"?>
<!DOCTYPE svg PUBLIC "-//W3C//DTD SVG 1.1//EN"
 "http://www.w3.org/Graphics/SVG/1.1/DTD/svg11.dtd">
<!-- Generated by graphviz version 12.2.1 (20241206.2353)
 -->
<!-- Title: NoiseSettingsData Pages: 1 -->
<svg width="151pt" height="416pt"
 viewBox="0.00 0.00 151.25 416.00" xmlns="http://www.w3.org/2000/svg" xmlns:xlink="http://www.w3.org/1999/xlink">

<svg id="main" version="1.1" xmlns="http://www.w3.org/2000/svg" xmlns:xlink="http://www.w3.org/1999/xlink" xml:space="preserve">

<style type="text/css"><![CDATA[
.node, .edge {opacity: 0.7;}
.node.selected, .edge.selected {opacity: 1;}
.edge:hover path { stroke: red; }
.edge:hover polygon { stroke: red; fill: red; }
]]></style>
<script type="application/ecmascript" xlink:href="svg.min.js"/>
<svg id="graph" class="graph">
<g id="graph0" class="graph" transform="scale(1 1) rotate(0) translate(4 412)">
<title>NoiseSettingsData</title>
<!-- Node1 -->
<g id="Node000001" class="node">
<title>Node1</title>
<g id="a_Node000001"><a xlink:title=" ">
<polygon fill="#999999" stroke="none" points="143.25,-320 0,-320 0,0 143.25,0 143.25,-320"/>
<text text-anchor="start" x="30.38" y="-306.5" font-family="Helvetica,sans-Serif" font-size="10.00">NoiseSettingsData</text>
<text text-anchor="start" x="4" y="-290.5" font-family="Helvetica,sans-Serif" font-size="10.00">+</text>
<text text-anchor="start" x="14" y="-290.5" font-family="Helvetica,sans-Serif" font-size="10.00">float scale</text>
<text text-anchor="start" x="4" y="-274.5" font-family="Helvetica,sans-Serif" font-size="10.00">+</text>
<text text-anchor="start" x="14" y="-274.5" font-family="Helvetica,sans-Serif" font-size="10.00">int octaveCount</text>
<text text-anchor="start" x="4" y="-258.5" font-family="Helvetica,sans-Serif" font-size="10.00">+</text>
<text text-anchor="start" x="14" y="-258.5" font-family="Helvetica,sans-Serif" font-size="10.00">float persistance</text>
<text text-anchor="start" x="4" y="-242.5" font-family="Helvetica,sans-Serif" font-size="10.00">+</text>
<text text-anchor="start" x="14" y="-242.5" font-family="Helvetica,sans-Serif" font-size="10.00">float lacunarity</text>
<text text-anchor="start" x="4" y="-226.5" font-family="Helvetica,sans-Serif" font-size="10.00">+</text>
<text text-anchor="start" x="14" y="-226.5" font-family="Helvetica,sans-Serif" font-size="10.00">float frequency</text>
<text text-anchor="start" x="4" y="-210.5" font-family="Helvetica,sans-Serif" font-size="10.00">+</text>
<text text-anchor="start" x="14" y="-210.5" font-family="Helvetica,sans-Serif" font-size="10.00">float amplitude</text>
<text text-anchor="start" x="4" y="-194.5" font-family="Helvetica,sans-Serif" font-size="10.00">+</text>
<text text-anchor="start" x="14" y="-194.5" font-family="Helvetica,sans-Serif" font-size="10.00">float maxHeight</text>
<text text-anchor="start" x="4" y="-178.5" font-family="Helvetica,sans-Serif" font-size="10.00">+</text>
<text text-anchor="start" x="14" y="-178.5" font-family="Helvetica,sans-Serif" font-size="10.00">float meshScale</text>
<text text-anchor="start" x="4" y="-162.5" font-family="Helvetica,sans-Serif" font-size="10.00">+</text>
<text text-anchor="start" x="14" y="-162.5" font-family="Helvetica,sans-Serif" font-size="10.00">int heightCurveSampleCount</text>
<text text-anchor="start" x="4" y="-146.5" font-family="Helvetica,sans-Serif" font-size="10.00">+</text>
<text text-anchor="start" x="14" y="-146.5" font-family="Helvetica,sans-Serif" font-size="10.00">NativeArray&lt; float3</text>
<text text-anchor="start" x="14" y="-134.5" font-family="Helvetica,sans-Serif" font-size="10.00"> &gt; octaveOffsets</text>
<text text-anchor="start" x="4" y="-118.5" font-family="Helvetica,sans-Serif" font-size="10.00">+</text>
<text text-anchor="start" x="14" y="-118.5" font-family="Helvetica,sans-Serif" font-size="10.00">NativeArray&lt; float</text>
<text text-anchor="start" x="14" y="-106.5" font-family="Helvetica,sans-Serif" font-size="10.00"> &gt; heightCurvePoints</text>
<text text-anchor="start" x="4" y="-90.5" font-family="Helvetica,sans-Serif" font-size="10.00">+</text>
<text text-anchor="start" x="14" y="-90.5" font-family="Helvetica,sans-Serif" font-size="10.00">NativeArray&lt; Color32</text>
<text text-anchor="start" x="14" y="-78.5" font-family="Helvetica,sans-Serif" font-size="10.00"> &gt; gradientColors</text>
<text text-anchor="start" x="4" y="-62.5" font-family="Helvetica,sans-Serif" font-size="10.00">+</text>
<text text-anchor="start" x="14" y="-62.5" font-family="Helvetica,sans-Serif" font-size="10.00">float SampleHeightCurve</text>
<text text-anchor="start" x="14" y="-50.5" font-family="Helvetica,sans-Serif" font-size="10.00">(float vertexNo)</text>
<text text-anchor="start" x="4" y="-34.5" font-family="Helvetica,sans-Serif" font-size="10.00">+</text>
<text text-anchor="start" x="14" y="-34.5" font-family="Helvetica,sans-Serif" font-size="10.00">Color32 SampleGradient</text>
<text text-anchor="start" x="14" y="-22.5" font-family="Helvetica,sans-Serif" font-size="10.00">(float inverseHeight)</text>
<text text-anchor="start" x="4" y="-6.5" font-family="Helvetica,sans-Serif" font-size="10.00">+</text>
<text text-anchor="start" x="14" y="-6.5" font-family="Helvetica,sans-Serif" font-size="10.00">void Dispose()</text>
<polygon fill="#666666" stroke="#666666" points="0,-302 0,-302 143.25,-302 143.25,-302 0,-302"/>
<polygon fill="#666666" stroke="#666666" points="0,-74 0,-74 12,-74 12,-74 0,-74"/>
<polygon fill="#666666" stroke="#666666" points="12,-74 12,-74 143.25,-74 143.25,-74 12,-74"/>
<polygon fill="none" stroke="#666666" points="0,0 0,-320 143.25,-320 143.25,0 0,0"/>
</a>
</g>
</g>
<!-- Node2 -->
<g id="Node000002" class="node">
<title>Node2</title>
<g id="a_Node000002"><a xlink:title=" ">
<polygon fill="white" stroke="none" points="101.5,-408 41.75,-408 41.75,-356 101.5,-356 101.5,-408"/>
<text text-anchor="start" x="45.75" y="-394.5" font-family="Helvetica,sans-Serif" font-size="10.00">IDisposable</text>
<text text-anchor="start" x="70.12" y="-378.5" font-family="Helvetica,sans-Serif" font-size="10.00"> </text>
<text text-anchor="start" x="70.12" y="-362.5" font-family="Helvetica,sans-Serif" font-size="10.00"> </text>
<polygon fill="#bfbfbf" stroke="#bfbfbf" points="41.75,-390 41.75,-390 101.5,-390 101.5,-390 41.75,-390"/>
<polygon fill="#bfbfbf" stroke="#bfbfbf" points="41.75,-374 41.75,-374 101.5,-374 101.5,-374 41.75,-374"/>
<polygon fill="none" stroke="#bfbfbf" points="41.75,-356 41.75,-408 101.5,-408 101.5,-356 41.75,-356"/>
</a>
</g>
</g>
<!-- Node2&#45;&gt;Node1 -->
<g id="edge1_Node000001_Node000002" class="edge">
<title>Node2&#45;&gt;Node1</title>
<g id="a_edge1_Node000001_Node000002"><a xlink:title=" ">
<path fill="none" stroke="#63b8ff" d="M71.62,-344.93C71.62,-337.27 71.62,-328.72 71.62,-319.61"/>
<polygon fill="none" stroke="#63b8ff" points="68.13,-344.68 71.63,-354.68 75.13,-344.68 68.13,-344.68"/>
</a>
</g>
</g>
</g>
</svg>
</svg>

<style type='text/css'>
<![CDATA[
[data-mouse-over-selected='false'] { opacity: 0.7; }
[data-mouse-over-selected='true']  { opacity: 1.0; }
]]>
</style>
<script type="application/ecmascript"><![CDATA[
document.addEventListener('DOMContentLoaded', (event) => {
  highlightEdges();
  highlightAdjacentNodes();
});
]]></script>
</svg>
