<?xml version="1.0" encoding="UTF-8" standalone="no"?>
<!DOCTYPE svg PUBLIC "-//W3C//DTD SVG 1.1//EN"
 "http://www.w3.org/Graphics/SVG/1.1/DTD/svg11.dtd">
<!-- Generated by graphviz version 12.2.1 (20241206.2353)
 -->
<!-- Title: ChunkGen Pages: 1 -->
<svg width="370pt" height="717pt"
 viewBox="0.00 0.00 370.12 717.00" xmlns="http://www.w3.org/2000/svg" xmlns:xlink="http://www.w3.org/1999/xlink">
<g id="graph0" class="graph" transform="scale(1 1) rotate(0) translate(4 713)">
<title>ChunkGen</title>
<!-- Node1 -->
<g id="Node000001" class="node">
<title>Node1</title>
<g id="a_Node000001"><a xlink:title=" ">
<polygon fill="#999999" stroke="none" points="217.25,-252 41.75,-252 41.75,0 217.25,0 217.25,-252"/>
<text text-anchor="start" x="106.25" y="-238.5" font-family="Helvetica,sans-Serif" font-size="10.00">ChunkGen</text>
<text text-anchor="start" x="45.75" y="-222.5" font-family="Helvetica,sans-Serif" font-size="10.00">+</text>
<text text-anchor="start" x="55.75" y="-222.5" font-family="Helvetica,sans-Serif" font-size="10.00">float2 origin</text>
<text text-anchor="start" x="45.75" y="-206.5" font-family="Helvetica,sans-Serif" font-size="10.00">+</text>
<text text-anchor="start" x="55.75" y="-206.5" font-family="Helvetica,sans-Serif" font-size="10.00">quaternion meshRotation</text>
<text text-anchor="start" x="45.75" y="-190.5" font-family="Helvetica,sans-Serif" font-size="10.00">+</text>
<text text-anchor="start" x="55.75" y="-190.5" font-family="Helvetica,sans-Serif" font-size="10.00">float res</text>
<text text-anchor="start" x="45.75" y="-174.5" font-family="Helvetica,sans-Serif" font-size="10.00">+</text>
<text text-anchor="start" x="55.75" y="-174.5" font-family="Helvetica,sans-Serif" font-size="10.00">int resolution</text>
<text text-anchor="start" x="45.75" y="-158.5" font-family="Helvetica,sans-Serif" font-size="10.00">+</text>
<text text-anchor="start" x="55.75" y="-158.5" font-family="Helvetica,sans-Serif" font-size="10.00">int vertexCount</text>
<text text-anchor="start" x="45.75" y="-142.5" font-family="Helvetica,sans-Serif" font-size="10.00">+</text>
<text text-anchor="start" x="55.75" y="-142.5" font-family="Helvetica,sans-Serif" font-size="10.00">int indexCount</text>
<text text-anchor="start" x="45.75" y="-126.5" font-family="Helvetica,sans-Serif" font-size="10.00">+</text>
<text text-anchor="start" x="55.75" y="-126.5" font-family="Helvetica,sans-Serif" font-size="10.00">int jobLength</text>
<text text-anchor="start" x="45.75" y="-110.5" font-family="Helvetica,sans-Serif" font-size="10.00">+</text>
<text text-anchor="start" x="55.75" y="-110.5" font-family="Helvetica,sans-Serif" font-size="10.00">void Execute(int z)</text>
<text text-anchor="start" x="45.75" y="-94.5" font-family="Helvetica,sans-Serif" font-size="10.00">+</text>
<text text-anchor="start" x="55.75" y="-94.5" font-family="Helvetica,sans-Serif" font-size="10.00">static JobHandle Schedule</text>
<text text-anchor="start" x="55.75" y="-82.5" font-family="Helvetica,sans-Serif" font-size="10.00">Parallel(Mesh.MeshData</text>
<text text-anchor="start" x="55.75" y="-70.5" font-family="Helvetica,sans-Serif" font-size="10.00"> meshData, NoiseSettingsData</text>
<text text-anchor="start" x="55.75" y="-58.5" font-family="Helvetica,sans-Serif" font-size="10.00"> settings, float2 origin, quaternion</text>
<text text-anchor="start" x="55.75" y="-46.5" font-family="Helvetica,sans-Serif" font-size="10.00"> meshRotation, float res, JobHandle</text>
<text text-anchor="start" x="55.75" y="-34.5" font-family="Helvetica,sans-Serif" font-size="10.00"> dependency, int resolution=255)</text>
<text text-anchor="start" x="45.75" y="-18.5" font-family="Helvetica,sans-Serif" font-size="10.00">+</text>
<text text-anchor="start" x="55.75" y="-18.5" font-family="Helvetica,sans-Serif" font-size="10.00">static float3 CubeToSphere</text>
<text text-anchor="start" x="55.75" y="-6.5" font-family="Helvetica,sans-Serif" font-size="10.00">(float3 p, float radius)</text>
<polygon fill="#666666" stroke="#666666" points="41.75,-234 41.75,-234 217.25,-234 217.25,-234 41.75,-234"/>
<polygon fill="#666666" stroke="#666666" points="41.75,-122 41.75,-122 53.75,-122 53.75,-122 41.75,-122"/>
<polygon fill="#666666" stroke="#666666" points="53.75,-122 53.75,-122 217.25,-122 217.25,-122 53.75,-122"/>
<polygon fill="none" stroke="#666666" points="41.75,0 41.75,-252 217.25,-252 217.25,0 41.75,0"/>
</a>
</g>
</g>
<!-- Node2 -->
<g id="Node000002" class="node">
<title>Node2</title>
<g id="a_Node000002"><a xlink:title=" ">
<polygon fill="white" stroke="none" points="41,-486 0,-486 0,-434 41,-434 41,-486"/>
<text text-anchor="start" x="4" y="-472.5" font-family="Helvetica,sans-Serif" font-size="10.00">IJobFor</text>
<text text-anchor="start" x="19" y="-456.5" font-family="Helvetica,sans-Serif" font-size="10.00"> </text>
<text text-anchor="start" x="19" y="-440.5" font-family="Helvetica,sans-Serif" font-size="10.00"> </text>
<polygon fill="#bfbfbf" stroke="#bfbfbf" points="0,-468 0,-468 41,-468 41,-468 0,-468"/>
<polygon fill="#bfbfbf" stroke="#bfbfbf" points="0,-452 0,-452 41,-452 41,-452 0,-452"/>
<polygon fill="none" stroke="#bfbfbf" points="0,-434 0,-486 41,-486 41,-434 0,-434"/>
</a>
</g>
</g>
<!-- Node2&#45;&gt;Node1 -->
<g id="edge1_Node000001_Node000002" class="edge">
<title>Node2&#45;&gt;Node1</title>
<g id="a_edge1_Node000001_Node000002"><a xlink:title=" ">
<path fill="none" stroke="#63b8ff" d="M24.46,-422.77C28.64,-390.13 36.48,-341.1 49.5,-300 54.55,-284.07 60.71,-267.69 67.37,-251.66"/>
<polygon fill="none" stroke="#63b8ff" points="21.01,-422.16 23.26,-432.51 27.95,-423.01 21.01,-422.16"/>
</a>
</g>
</g>
<!-- Node3 -->
<g id="Node000003" class="node">
<title>Node3</title>
<g id="a_Node000003"><a xlink:href="struct_advanced_mesh_gen_setup.html" target="_top" xlink:title=" ">
<polygon fill="white" stroke="none" points="200.38,-546 58.62,-546 58.62,-374 200.38,-374 200.38,-546"/>
<text text-anchor="start" x="74" y="-532.5" font-family="Helvetica,sans-Serif" font-size="10.00">AdvancedMeshGenSetup</text>
<text text-anchor="start" x="64.12" y="-516.5" font-family="Helvetica,sans-Serif" font-size="10.00">&#45;</text>
<text text-anchor="start" x="72.62" y="-516.5" font-family="Helvetica,sans-Serif" font-size="10.00">NativeArray&lt; Vertex</text>
<text text-anchor="start" x="72.62" y="-504.5" font-family="Helvetica,sans-Serif" font-size="10.00"> &gt; vertices</text>
<text text-anchor="start" x="64.12" y="-488.5" font-family="Helvetica,sans-Serif" font-size="10.00">&#45;</text>
<text text-anchor="start" x="72.62" y="-488.5" font-family="Helvetica,sans-Serif" font-size="10.00">NativeArray&lt; TriangleUInt16</text>
<text text-anchor="start" x="72.62" y="-476.5" font-family="Helvetica,sans-Serif" font-size="10.00"> &gt; triangles</text>
<text text-anchor="start" x="62.62" y="-460.5" font-family="Helvetica,sans-Serif" font-size="10.00">+</text>
<text text-anchor="start" x="72.62" y="-460.5" font-family="Helvetica,sans-Serif" font-size="10.00">void Setup(Mesh.MeshData</text>
<text text-anchor="start" x="72.62" y="-448.5" font-family="Helvetica,sans-Serif" font-size="10.00"> meshData, int vertexCount,</text>
<text text-anchor="start" x="72.62" y="-436.5" font-family="Helvetica,sans-Serif" font-size="10.00"> int indexCount)</text>
<text text-anchor="start" x="62.62" y="-420.5" font-family="Helvetica,sans-Serif" font-size="10.00">+</text>
<text text-anchor="start" x="72.62" y="-420.5" font-family="Helvetica,sans-Serif" font-size="10.00">void SetVertex(int</text>
<text text-anchor="start" x="72.62" y="-408.5" font-family="Helvetica,sans-Serif" font-size="10.00"> index, Vertex vertex)</text>
<text text-anchor="start" x="62.62" y="-392.5" font-family="Helvetica,sans-Serif" font-size="10.00">+</text>
<text text-anchor="start" x="72.62" y="-392.5" font-family="Helvetica,sans-Serif" font-size="10.00">void SetTriangle(int</text>
<text text-anchor="start" x="72.62" y="-380.5" font-family="Helvetica,sans-Serif" font-size="10.00"> index, int3 triangle)</text>
<polygon fill="#bfbfbf" stroke="#bfbfbf" points="58.62,-528 58.62,-528 200.38,-528 200.38,-528 58.62,-528"/>
<polygon fill="#bfbfbf" stroke="#bfbfbf" points="58.62,-472 58.62,-472 70.62,-472 70.62,-472 58.62,-472"/>
<polygon fill="#bfbfbf" stroke="#bfbfbf" points="70.62,-472 70.62,-472 200.38,-472 200.38,-472 70.62,-472"/>
<polygon fill="none" stroke="#bfbfbf" points="58.62,-374 58.62,-546 200.38,-546 200.38,-374 58.62,-374"/>
</a>
</g>
</g>
<!-- Node3&#45;&gt;Node1 -->
<g id="edge2_Node000001_Node000003" class="edge">
<title>Node3&#45;&gt;Node1</title>
<g id="a_edge2_Node000001_Node000003"><a xlink:title=" ">
<path fill="none" stroke="#63b8ff" d="M129.5,-374.36C129.5,-341.11 129.5,-302.07 129.5,-264.95"/>
<polygon fill="none" stroke="#63b8ff" points="129.5,-264.82 125.5,-258.82 129.5,-252.82 133.5,-258.82 129.5,-264.82"/>
</a>
</g>
<text text-anchor="middle" x="155" y="-272.5" font-family="Helvetica,sans-Serif" font-size="10.00" fill="grey"> +meshGen</text>
</g>
<!-- Node4 -->
<g id="Node000004" class="node">
<title>Node4</title>
<g id="a_Node000004"><a xlink:href="struct_noise_settings_data.html" target="_top" xlink:title=" ">
<polygon fill="white" stroke="none" points="362.12,-620 218.88,-620 218.88,-300 362.12,-300 362.12,-620"/>
<text text-anchor="start" x="249.25" y="-606.5" font-family="Helvetica,sans-Serif" font-size="10.00">NoiseSettingsData</text>
<text text-anchor="start" x="222.88" y="-590.5" font-family="Helvetica,sans-Serif" font-size="10.00">+</text>
<text text-anchor="start" x="232.88" y="-590.5" font-family="Helvetica,sans-Serif" font-size="10.00">float scale</text>
<text text-anchor="start" x="222.88" y="-574.5" font-family="Helvetica,sans-Serif" font-size="10.00">+</text>
<text text-anchor="start" x="232.88" y="-574.5" font-family="Helvetica,sans-Serif" font-size="10.00">int octaveCount</text>
<text text-anchor="start" x="222.88" y="-558.5" font-family="Helvetica,sans-Serif" font-size="10.00">+</text>
<text text-anchor="start" x="232.88" y="-558.5" font-family="Helvetica,sans-Serif" font-size="10.00">float persistance</text>
<text text-anchor="start" x="222.88" y="-542.5" font-family="Helvetica,sans-Serif" font-size="10.00">+</text>
<text text-anchor="start" x="232.88" y="-542.5" font-family="Helvetica,sans-Serif" font-size="10.00">float lacunarity</text>
<text text-anchor="start" x="222.88" y="-526.5" font-family="Helvetica,sans-Serif" font-size="10.00">+</text>
<text text-anchor="start" x="232.88" y="-526.5" font-family="Helvetica,sans-Serif" font-size="10.00">float frequency</text>
<text text-anchor="start" x="222.88" y="-510.5" font-family="Helvetica,sans-Serif" font-size="10.00">+</text>
<text text-anchor="start" x="232.88" y="-510.5" font-family="Helvetica,sans-Serif" font-size="10.00">float amplitude</text>
<text text-anchor="start" x="222.88" y="-494.5" font-family="Helvetica,sans-Serif" font-size="10.00">+</text>
<text text-anchor="start" x="232.88" y="-494.5" font-family="Helvetica,sans-Serif" font-size="10.00">float maxHeight</text>
<text text-anchor="start" x="222.88" y="-478.5" font-family="Helvetica,sans-Serif" font-size="10.00">+</text>
<text text-anchor="start" x="232.88" y="-478.5" font-family="Helvetica,sans-Serif" font-size="10.00">float meshScale</text>
<text text-anchor="start" x="222.88" y="-462.5" font-family="Helvetica,sans-Serif" font-size="10.00">+</text>
<text text-anchor="start" x="232.88" y="-462.5" font-family="Helvetica,sans-Serif" font-size="10.00">int heightCurveSampleCount</text>
<text text-anchor="start" x="222.88" y="-446.5" font-family="Helvetica,sans-Serif" font-size="10.00">+</text>
<text text-anchor="start" x="232.88" y="-446.5" font-family="Helvetica,sans-Serif" font-size="10.00">NativeArray&lt; float3</text>
<text text-anchor="start" x="232.88" y="-434.5" font-family="Helvetica,sans-Serif" font-size="10.00"> &gt; octaveOffsets</text>
<text text-anchor="start" x="222.88" y="-418.5" font-family="Helvetica,sans-Serif" font-size="10.00">+</text>
<text text-anchor="start" x="232.88" y="-418.5" font-family="Helvetica,sans-Serif" font-size="10.00">NativeArray&lt; float</text>
<text text-anchor="start" x="232.88" y="-406.5" font-family="Helvetica,sans-Serif" font-size="10.00"> &gt; heightCurvePoints</text>
<text text-anchor="start" x="222.88" y="-390.5" font-family="Helvetica,sans-Serif" font-size="10.00">+</text>
<text text-anchor="start" x="232.88" y="-390.5" font-family="Helvetica,sans-Serif" font-size="10.00">NativeArray&lt; Color32</text>
<text text-anchor="start" x="232.88" y="-378.5" font-family="Helvetica,sans-Serif" font-size="10.00"> &gt; gradientColors</text>
<text text-anchor="start" x="222.88" y="-362.5" font-family="Helvetica,sans-Serif" font-size="10.00">+</text>
<text text-anchor="start" x="232.88" y="-362.5" font-family="Helvetica,sans-Serif" font-size="10.00">float SampleHeightCurve</text>
<text text-anchor="start" x="232.88" y="-350.5" font-family="Helvetica,sans-Serif" font-size="10.00">(float vertexNo)</text>
<text text-anchor="start" x="222.88" y="-334.5" font-family="Helvetica,sans-Serif" font-size="10.00">+</text>
<text text-anchor="start" x="232.88" y="-334.5" font-family="Helvetica,sans-Serif" font-size="10.00">Color32 SampleGradient</text>
<text text-anchor="start" x="232.88" y="-322.5" font-family="Helvetica,sans-Serif" font-size="10.00">(float inverseHeight)</text>
<text text-anchor="start" x="222.88" y="-306.5" font-family="Helvetica,sans-Serif" font-size="10.00">+</text>
<text text-anchor="start" x="232.88" y="-306.5" font-family="Helvetica,sans-Serif" font-size="10.00">void Dispose()</text>
<polygon fill="#bfbfbf" stroke="#bfbfbf" points="218.88,-602 218.88,-602 362.12,-602 362.12,-602 218.88,-602"/>
<polygon fill="#bfbfbf" stroke="#bfbfbf" points="218.88,-374 218.88,-374 230.88,-374 230.88,-374 218.88,-374"/>
<polygon fill="#bfbfbf" stroke="#bfbfbf" points="230.88,-374 230.88,-374 362.12,-374 362.12,-374 230.88,-374"/>
<polygon fill="none" stroke="#bfbfbf" points="218.88,-300 218.88,-620 362.12,-620 362.12,-300 218.88,-300"/>
</a>
</g>
</g>
<!-- Node4&#45;&gt;Node1 -->
<g id="edge3_Node000001_Node000004" class="edge">
<title>Node4&#45;&gt;Node1</title>
<g id="a_edge3_Node000001_Node000004"><a xlink:title=" ">
<path fill="none" stroke="#63b8ff" d="M218.95,-311.45C211.17,-295.42 203.29,-279.16 195.59,-263.28"/>
<polygon fill="none" stroke="#63b8ff" points="195.64,-263.4 189.43,-259.74 190.41,-252.6 196.63,-256.25 195.64,-263.4"/>
</a>
</g>
<text text-anchor="middle" x="222.11" y="-272.5" font-family="Helvetica,sans-Serif" font-size="10.00" fill="grey"> +settings</text>
</g>
<!-- Node5 -->
<g id="Node000005" class="node">
<title>Node5</title>
<g id="a_Node000005"><a xlink:title=" ">
<polygon fill="white" stroke="none" points="320.38,-709 260.62,-709 260.62,-657 320.38,-657 320.38,-709"/>
<text text-anchor="start" x="264.62" y="-695.5" font-family="Helvetica,sans-Serif" font-size="10.00">IDisposable</text>
<text text-anchor="start" x="289" y="-679.5" font-family="Helvetica,sans-Serif" font-size="10.00"> </text>
<text text-anchor="start" x="289" y="-663.5" font-family="Helvetica,sans-Serif" font-size="10.00"> </text>
<polygon fill="#bfbfbf" stroke="#bfbfbf" points="260.62,-691 260.62,-691 320.38,-691 320.38,-691 260.62,-691"/>
<polygon fill="#bfbfbf" stroke="#bfbfbf" points="260.62,-675 260.62,-675 320.38,-675 320.38,-675 260.62,-675"/>
<polygon fill="none" stroke="#bfbfbf" points="260.62,-657 260.62,-709 320.38,-709 320.38,-657 260.62,-657"/>
</a>
</g>
</g>
<!-- Node5&#45;&gt;Node4 -->
<g id="edge4_Node000004_Node000005" class="edge">
<title>Node5&#45;&gt;Node4</title>
<g id="a_edge4_Node000004_Node000005"><a xlink:title=" ">
<path fill="none" stroke="#63b8ff" d="M290.5,-645.63C290.5,-637.84 290.5,-629.13 290.5,-619.86"/>
<polygon fill="none" stroke="#63b8ff" points="287,-645.56 290.5,-655.56 294,-645.56 287,-645.56"/>
</a>
</g>
</g>
</g>
</svg>
